<svg xmlns="http://www.w3.org/2000/svg" width="32" height="32" fill="none" viewBox="0 0 32 32">
    <rect width="31" height="31" x=".5" y=".5" stroke="#E1E4E8" rx="5.5"/>
    <mask id="prefix__a" width="32" height="32" x="0" y="0" maskUnits="userSpaceOnUse">
        <rect width="32" height="32" fill="#E1E4E8" rx="6"/>
    </mask>
    <g mask="url(#prefix__a)">
        <path fill="#fff" d="M0 0H32V32H0z" opacity=".01"/>
    </g>
    <path fill="#191919" fill-rule="evenodd" d="M22.667 9.333H13c-.46 0-.833.426-.833.952s.373.953.833.953h9.667c.46 0 .833-.427.833-.953s-.373-.952-.833-.952zm0 11.429H15c-.46 0-.833.426-.833.952s.373.952.833.952h7.667c.46 0 .833-.426.833-.952s-.373-.952-.833-.952zm0-5.715H9.333c-.46 0-.833.427-.833.953s.373.952.833.952h13.334c.46 0 .833-.426.833-.952s-.373-.953-.833-.953z" clip-rule="evenodd"/>
</svg>
